<svg width="701" height="101" viewBox="0 0 701 101" fill="none" xmlns="http://www.w3.org/2000/svg">
<path d="M626.554 21.3127H629.975L633.398 21.6562L636.651 22.3433L640.246 23.5456L643.838 25.435L645.893 26.9837L647.604 28.5324L648.459 29.3884L650.172 31.2806V31.6241L651.027 30.7653L653.08 28.5296L654.964 26.8119L657.53 25.0943L660.44 23.5456L664.032 22.3433L667.285 21.6562L670.708 21.3127H674.129L677.724 21.6562L681.148 22.3433L685.256 23.7174L688.505 25.435L690.903 27.1527L693.126 29.2166L695.011 31.4524L696.892 34.5441L698.261 37.4669L699.29 40.5614L700.145 44.6838L700.487 47.6066L700.658 50.8729V88.5087L700.487 88.6805H680.635L680.464 88.5115L680.293 49.8395L679.95 47.4348L679.266 45.3708L678.237 43.4842L677.382 42.4508L675.501 41.2485L673.616 40.5614L670.88 40.2151L668.14 40.3869L666.259 40.905L664.203 41.9356L663.348 42.6226L662.151 44.3402L661.295 46.2324L660.782 48.2936L660.611 49.8423L660.44 88.6805H640.417L640.246 88.5115L640.072 49.1524L639.388 46.0607L638.19 43.6532L636.822 42.1045L634.083 40.7332L632.543 40.3869L629.975 40.2179L627.238 40.5614L624.841 41.4203L623.301 42.6226L622.275 43.8249L621.249 45.8889L620.562 48.8089L620.391 50.7011L620.22 88.6805H600.196V48.4654L600.709 43.9967L601.739 39.6998L602.936 36.4335L604.817 32.8265L606.873 30.0754L609.609 27.3272L612.007 25.6096L614.743 24.0609L617.312 23.0303L620.22 22.1715L624.328 21.4845L626.554 21.3127ZM306.174 21.3127H309.769L313.703 21.6562L317.982 22.5151L321.406 23.5456L325 25.0943L327.737 26.6402L330.135 28.3578L332.016 29.9065L333.558 31.2806L334.756 32.6547L336.466 34.7159L338.35 37.6387L339.89 40.5614L341.429 44.6838L342.455 48.9807L342.969 53.2775V61.5278L293.68 61.6968L294.709 64.7941L296.077 67.1988L297.788 69.0882L300.185 70.6369L302.067 71.4957L304.977 72.1828L306.174 72.3545H310.282L313.874 71.8392L316.443 70.9804L318.153 69.9498L319.866 68.4012L320.379 67.7141H341.087L340.745 69.2628L339.034 73.2133L337.15 76.3079L335.44 78.5408L333.558 80.6048L332.016 82.1535L329.108 84.3864L326.54 85.9323L323.803 87.3064L320.893 88.5087L317.127 89.5421L313.19 90.2292L311.48 90.3981H304.464L300.356 89.8856L296.248 88.8522L292.996 87.6499L289.059 85.7605L286.493 84.0429L284.096 82.1507L281.359 79.5714L279.817 77.6848L277.938 75.1056L276.396 72.3545L275.196 69.7781L273.827 65.6529L272.972 61.5278L272.63 58.0926V53.7928L273.143 49.3242L273.999 45.5454L275.196 42.1073L277.08 38.1539L279.133 35.0594L280.504 33.3418L282.385 31.2806L283.754 29.9037L286.664 27.6708L289.401 25.9531L292.14 24.5762L295.564 23.2021L299.501 22.1715L303.777 21.4845L306.174 21.3127ZM305.832 39.3563L302.409 40.0433L300.356 40.905L298.643 41.9356L296.932 43.4842L295.906 44.6838L294.538 47.0913L294.022 48.8089H322.261L321.748 47.2602L320.551 45.0273L319.011 43.1407L317.298 41.761L314.732 40.3869L311.48 39.5281L310.282 39.3591L305.832 39.3563ZM228.476 21.3127H231.896L235.833 21.6562L239.599 22.3433L243.02 23.3739L245.762 24.4044L249.696 26.4684L252.607 28.5296L255.172 30.7653L256.715 32.3112L258.596 34.7159L259.793 36.4335L261.504 39.3563L263.046 42.9661L264.072 46.2324L264.757 49.4988L265.099 52.4187L265.27 61.356L265.101 61.525L215.81 61.6996L216.839 64.6224L218.036 66.8553L219.405 68.5729L221.46 70.1216L223.855 71.3239L227.107 72.1828L228.476 72.3545H232.583L236.004 71.8392L238.573 70.9804L240.115 70.1216L241.654 68.9165L242.681 67.7141H263.217L263.388 68.0576L261.846 71.8392L260.136 75.1056L258.083 78.0255L256.202 80.0895L253.804 82.4942L250.551 84.9017L247.473 86.6193L244.052 88.168L240.799 89.1958L236.52 90.0574L233.61 90.4009H226.594L222.657 89.8856L217.862 88.6805L213.586 86.9628L210.165 85.0734L207.768 83.3558L205.542 81.4636L202.805 78.7126L200.579 75.7926L199.036 73.2133L197.326 69.6035L195.958 65.4812L195.102 61.0125L194.76 56.3721L194.931 52.4187L195.444 48.6371L196.3 45.2019L197.329 42.2791L198.697 39.1845L200.579 36.0928L202.121 34.0288L204.173 31.6241L206.742 29.2166L209.821 26.9837L212.56 25.435L215.813 23.8892L219.405 22.6868L223.341 21.828L226.078 21.4845L228.476 21.3127ZM227.962 39.3563L224.542 40.0433L221.802 41.2485L219.576 42.9661L218.207 44.5148L216.839 46.9195L216.152 48.8089H244.391L244.223 47.7783L242.849 45.1991L241.483 43.4814L239.773 41.9327L237.718 40.7332L234.636 39.6998L232.412 39.3563H227.962ZM66.2305 0H86.2567V23.0303H116.377L117.232 23.2021V41.0767L117.061 41.2457H86.2567L86.4249 64.4478L86.9408 67.1988L87.9671 69.26L89.1644 70.4651L90.5356 71.1522L92.075 71.4957H95.4958L97.5512 70.8087L98.5774 70.1216L99.0906 69.9498L100.462 67.1988L100.975 64.4478L101.143 60.8408L101.317 60.669H120.998L121.34 60.8379L121.169 66.34L120.656 70.1216L119.972 73.0416L118.943 75.9644L117.575 78.7126L116.377 80.6048L115.009 82.3224L112.783 84.5582L110.388 86.2758L106.793 88.1652L103.198 89.3703L99.9458 90.0574L97.2091 90.4009H90.1935L86.2567 89.8856L83.004 89.024L80.2645 87.9934L77.5278 86.6193L75.1304 84.9017L73.0779 83.0095L71.3674 81.1201L69.657 78.5408L68.2858 75.6208L67.2596 72.5263L66.5754 69.26L66.2333 66.5118L66.0622 63.7607V0.171763L66.2305 0.00281626V0ZM353.069 0H373.263V23.0303H401.673L404.239 23.2021V41.0767L403.897 41.2457H373.263L373.434 64.9659L373.947 67.3706L374.802 69.0882L375.658 70.1216L378.055 71.3239L378.91 71.4929H382.334L384.557 70.8087L385.926 69.7781L386.61 68.9165L387.297 67.5423L387.81 65.4812L388.152 60.8408L388.323 60.669H408.004L408.176 60.8379V65.6529L407.833 68.9193L407.149 72.3545L406.12 75.4491L404.581 78.7154L403.212 80.7766L401.328 83.0095L400.131 84.2146L397.907 85.9323L395.168 87.4809L391.918 88.8522L387.981 89.8856L384.044 90.4009H377.026L373.263 89.8856L369.326 88.8522L366.073 87.4781L363.679 86.104L361.452 84.3864L358.887 81.8071L357.174 79.3996L355.463 76.1333L354.437 73.3851L353.582 69.6035L353.24 67.1988L353.069 64.6224V0ZM448.393 21.3127H451.988L455.925 21.6562L460.375 22.5151L464.996 24.0637L468.246 25.6096L470.985 27.3272L473.038 28.8759L475.435 30.9371L477.488 33.17L479.543 35.921L481.253 38.841L482.622 41.7638L483.99 45.8889L484.506 48.1218V48.9807H464.138L462.769 46.4042L461.23 44.512L459.688 43.1379L457.293 41.7638L454.554 40.7332L452.672 40.3869L449.762 40.2179L446.683 40.5614L443.943 41.4203L441.72 42.6226L440.007 43.9967L438.296 45.8889L436.928 48.2936L436.073 50.5293L435.557 52.7623L435.386 54.4799V57.4027L435.901 60.669L436.757 63.2454L438.296 65.9965L440.349 68.2294L442.917 69.947L445.657 70.9804L448.051 71.4957H452.33L455.412 70.8087L457.977 69.7781L460.03 68.4012L461.572 67.027L463.283 64.6224L464.138 62.9047H484.506L484.332 64.4478L483.135 68.7447L481.595 72.3545L479.885 75.4491L477.83 78.1973L476.29 79.9149L473.722 82.4942L470.985 84.5582L467.733 86.4447L464.822 87.8245L460.717 89.1958L456.609 90.0574L453.698 90.4009H446.683L442.746 89.8856L438.467 88.8522L435.215 87.6499L431.623 85.9323L428.712 84.0429L426.317 82.1507L424.091 80.0895L422.552 78.3719L420.838 76.1361L419.47 73.9004L417.76 70.6341L416.22 66.34L415.362 62.5584L414.849 58.0897V53.6239L415.362 49.327L416.22 45.5482L417.418 42.1101L419.299 38.1568L420.838 35.7521L422.723 33.3446L424.262 31.6269L425.975 29.9093L428.883 27.6736L431.281 26.1249L434.188 24.579L438.296 23.0332L442.575 22.0026L445.999 21.4873L448.393 21.3155V21.3127ZM26.0127 21.3127H29.6074L33.3732 21.6562L37.4811 22.5151L40.5599 23.5456L43.8125 25.0943L46.381 26.8119L48.2597 28.3606L49.8018 29.9037L51.3441 31.9677L52.7124 34.3723L53.7387 36.7798L54.4228 39.5281L54.7649 42.6226L54.5967 42.7944H35.2547L34.0574 40.3869L32.689 39.1845L31.1468 38.4975L29.2654 38.1539H26.8707L24.9864 38.4975L23.276 39.3563L22.4208 40.2151L21.7338 41.2485L21.5656 41.9356V44.1685L22.0787 45.1991L23.276 46.2324L25.4996 47.0913L29.7785 47.9501L37.31 49.1524L42.1021 50.3576L45.3547 51.5599L48.6045 53.2775L50.8281 54.9952L52.3703 56.5439L53.9125 58.7768L55.107 61.356L55.794 64.1043L55.9622 65.1377V70.6369L55.2781 73.9032L54.2518 76.8232L53.0545 79.0561L51.6861 80.9483L50.1439 82.6659L48.7756 84.0429L45.865 86.104L43.2994 87.4781L39.7046 88.8522L35.4257 89.8856L31.4889 90.4009H24.3023L20.1944 89.8856L16.7735 89.024L13.3498 87.8217L9.75512 85.9323L7.3605 84.2146L5.13412 82.1507L3.25264 79.746L1.71044 77.1667L0.684176 74.4157L0 71.6703V68.7447H19.6813L20.3655 70.9804L21.0496 72.011L22.4208 72.8698L24.9864 73.5569L28.2391 73.7286L31.4917 73.3851L33.7153 72.5263L34.7416 71.6675L35.4257 70.2934V67.8859L34.7416 66.5118L33.7153 65.6529L31.6628 64.7941L28.5784 64.1043L20.0262 62.7302L15.5734 61.6996L11.6366 60.3255L8.38396 58.6078L5.98934 56.7156L4.62099 55.3415L3.07879 53.1058L1.88148 50.5293L1.19731 47.9501L0.85522 44.5148L1.02626 41.2485L1.5394 38.3257L2.56846 35.234L4.10786 32.3112L5.8183 30.0754L7.70259 28.0143L9.92616 26.2967L12.1497 24.9197L15.4024 23.3739L18.8233 22.3433L22.4208 21.6562L26.0127 21.3127ZM158.137 21.3127H161.9L165.837 21.6562L169.603 22.3433L173.024 23.3739L176.108 24.748L178.845 26.4656L180.726 28.0143L182.268 29.3884L183.808 31.2806L185.005 32.9982L186.547 35.7493L187.916 39.1845L188.942 43.3097L189.455 46.7449L189.626 48.9807V51.9063L189.455 52.0752H169.603L169.09 47.4376L168.234 44.6866L167.205 42.9689L165.666 41.5948L163.784 40.736L162.413 40.3897L159.677 40.2207L156.937 40.5643L155.227 41.2513L153.684 42.2819L152.487 43.656L151.632 45.5482L151.119 47.2658L150.777 51.0474L150.606 88.6833H130.582V48.2936L131.095 43.9967L131.951 40.2151L132.806 37.6387L134.69 33.6853L136.401 31.2806L138.282 29.0449L139.993 27.4962L142.39 25.7786L144.787 24.4044L148.208 23.0303L151.461 22.1715L155.74 21.4845L158.137 21.3127ZM541.495 9.45261H544.405L548.684 9.79613L552.792 10.4832L556.726 11.5166L560.492 12.8907L564.257 14.6083L567.168 16.3259L569.905 18.2182L572.131 19.9358L574.184 21.828L575.552 23.0303L577.607 25.2633L579.66 27.8425L581.541 30.5907L583.083 33.17L584.965 36.9516L586.504 41.0767L587.533 44.8555L588.218 48.4654L588.56 51.5599V58.7768L588.047 62.7302L587.191 66.8553L585.307 72.5263L583.083 77.1667L580.857 80.7766L579.318 82.8377L577.778 84.7299L575.894 86.7911L573.328 89.3703L570.931 91.2569L568.365 93.1491L564.942 95.2131L560.321 97.446L555.186 99.1637L550.565 100.197L546.629 100.712H539.1L533.624 99.8535L530.2 98.9919L526.092 97.6178L521.984 95.7284L518.906 94.0108L517.192 92.8056L512.913 93.6644L497.853 96.9307L496.143 97.2743L495.972 96.9307L498.879 88.8522L501.619 81.2918L502.987 77.3385L500.764 72.6981L499.395 68.9165L498.366 65.1377L497.682 61.1843L497.34 57.5744V52.5905L497.853 47.9501L498.708 43.6532L500.593 37.9822L502.645 33.6853L504.187 30.9371L506.582 27.499L508.463 25.2633L510.006 23.5456L512.4 21.1409L514.284 19.5923L516.508 17.8746L519.077 16.157L522.155 14.4394L525.408 12.8907L529.174 11.5166L533.966 10.3114L537.216 9.79613L541.495 9.45261ZM539.271 15.8107L534.821 16.5005L530.884 17.5311L527.289 18.9052L524.04 20.4539L520.445 22.6868L518.047 24.5762L515.653 26.6402L513.942 28.3578L512.4 30.2472L511.032 31.9648L509.321 34.5441L507.779 37.2951L506.411 40.2151L504.871 44.8555L504.016 48.8089L503.671 51.3882L503.5 55.3415L503.671 58.7768L504.358 63.4172L505.556 67.7141L507.266 72.011L508.979 75.2773L509.835 76.6514L509.321 78.369L506.582 85.9323L505.556 88.8522L509.835 87.9934L517.705 86.2758H518.734L521.129 87.9934L523.698 89.5421L526.605 91.088L530.2 92.4621L533.624 93.4927L537.216 94.1825L540.468 94.5261H545.431L549.881 94.0108L554.16 92.9774L557.584 91.775L560.663 90.4009L563.231 89.024L566.31 86.9628L568.707 85.0734L571.273 82.6659L573.328 80.433L575.039 78.1973L576.749 75.6208L577.778 73.9032L579.318 70.6369L580.857 66.34L581.712 62.9047L582.228 59.6384L582.399 57.4027V52.7623L582.057 49.4959L581.199 45.1991L580.344 42.2791L578.805 38.4975L576.923 34.8876L575.21 32.3112L573.499 30.0754L571.444 27.8425L569.049 25.4378L566.652 23.5456L564.428 21.9969L561.86 20.4511L557.926 18.5645L553.305 17.0158L550.394 16.3288L546.458 15.8107H539.271Z" fill="white"/>
</svg>
