<svg width="71" height="61" viewBox="0 0 71 61" fill="none" xmlns="http://www.w3.org/2000/svg">
<g opacity="0.2" clip-path="url(#clip0_1277_1013)">
<path d="M64.0664 3.74219H44.9297C41.1065 3.74219 37.9961 6.8526 37.9961 10.6758V27.3147C37.9961 31.1379 41.1065 34.2483 44.9297 34.2483H53.9006C53.585 44.608 49.6544 49.9934 41.9112 50.6979C41.1971 50.7629 40.6501 51.3617 40.6501 52.0789V65.8672C40.6501 66.2485 40.8071 66.613 41.0842 66.8749C41.3424 67.119 41.6834 67.2539 42.0367 67.2539C42.0626 67.2539 42.0887 67.2532 42.1147 67.2517C51.6703 66.7142 58.9648 63.4256 63.7959 57.4771C68.5762 51.5912 71 42.9903 71 31.9137V10.6758C71 6.8526 67.8896 3.74219 64.0664 3.74219ZM68.2266 31.9137C68.2266 52.2491 60.1094 62.8834 43.4236 64.3763V53.3053C47.6409 52.6494 50.9028 50.6864 53.1316 47.4588C55.4958 44.035 56.6946 39.1239 56.6946 32.8616C56.6946 32.0959 56.0738 31.4749 55.3079 31.4749H44.9297C42.6358 31.4749 40.7695 29.6087 40.7695 27.3147V10.6758C40.7695 8.38187 42.6358 6.51562 44.9297 6.51562H61.5703V16.7821C61.5703 17.5478 62.1911 18.1688 62.957 18.1688C63.7229 18.1688 64.3438 17.5478 64.3438 16.7821V6.52589C66.5087 6.66927 68.2266 8.4752 68.2266 10.6758V31.9137Z" fill="#FF57B7"/>
<path d="M62.957 20.2109C62.1911 20.2109 61.5703 20.8387 61.5703 21.6045C61.5703 22.3702 62.1911 22.9912 62.957 22.9912C63.7228 22.9912 64.3438 22.3702 64.3438 21.6045V21.5907C64.3438 20.825 63.7229 20.2109 62.957 20.2109Z" fill="#FF57B7"/>
<path d="M31.6172 16.5C32.3831 16.5 33.0039 15.879 33.0039 15.1133V10.6758C33.0039 6.8526 29.8935 3.74219 26.0703 3.74219H6.93359C3.11041 3.74219 0 6.8526 0 10.6758V27.3147C0 31.1379 3.11041 34.2483 6.93359 34.2483H15.9046C15.5889 44.608 11.6583 49.9934 3.91512 50.6979C3.20082 50.7629 2.65404 51.3617 2.65404 52.0789V65.8672C2.65404 66.2485 2.81102 66.613 3.08808 66.8749C3.34629 67.1188 3.68729 67.2539 4.04062 67.2539C4.06655 67.2539 4.09262 67.2532 4.11855 67.2517C13.6742 66.7142 20.9687 63.4256 25.7998 57.4771C30.5801 51.5911 33.0039 42.9903 33.0039 31.9137V26.9466C33.0039 26.1808 32.3831 25.5598 31.6172 25.5598C30.8513 25.5598 30.2305 26.1808 30.2305 26.9466V31.9137C30.2305 52.2491 22.1133 62.8834 5.42762 64.3763V53.3053C9.64477 52.6494 12.9067 50.6864 15.1356 47.4588C17.4998 44.0348 18.6987 39.1238 18.6987 32.8616C18.6987 32.0959 18.0778 31.4749 17.3119 31.4749H6.93359C4.63968 31.4749 2.77344 29.6087 2.77344 27.3147V10.6758C2.77344 8.38187 4.63968 6.51562 6.93359 6.51562H26.0703C28.3642 6.51562 30.2305 8.38187 30.2305 10.6758V15.1133C30.2305 15.879 30.8513 16.5 31.6172 16.5Z" fill="#FF57B7"/>
<path d="M31.6172 19.6484C30.8513 19.6484 30.2305 20.2694 30.2305 21.0352V21.0641C30.2305 21.8299 30.8513 22.4509 31.6172 22.4509C32.3831 22.4509 33.0039 21.8299 33.0039 21.0641V21.0352C33.0039 20.2694 32.3831 19.6484 31.6172 19.6484Z" fill="#FF57B7"/>
</g>
<defs>
<clipPath id="clip0_1277_1013">
<rect width="71" height="71" fill="white"/>
</clipPath>
</defs>
</svg>
